<svg width="64" height="64" viewBox="0 0 64 64" xmlns="http://www.w3.org/2000/svg">
  <defs>
    <linearGradient id="bg" x1="0" y1="0" x2="1" y2="1">
      <stop offset="0" stop-color="#6366f1"/>
      <stop offset="1" stop-color="#8b5cf6"/>
    </linearGradient>
  </defs>
  <rect width="64" height="64" rx="14" fill="url(#bg)"/>
  <g transform="translate(8 8) scale(1.5)">
    <path d="M5.88 27.33L4.53 25.98L7.14 23.37C5.52 21.45 4.56 18.99 4.56 16.29C4.56 10.2 9.48 5.28 15.57 5.28C18.27 5.28 20.73 6.24 22.65 7.86L25.26 5.25L26.61 6.6L24 9.21C25.62 11.13 26.58 13.59 26.58 16.29C26.58 22.38 21.6 27.3 15.57 27.3C12.87 27.3 10.41 26.34 8.49 24.72L5.88 27.33ZM6.72 16.29C6.72 18.39 7.44 20.31 8.67 21.84L21.12 9.39C19.59 8.16 17.67 7.44 15.57 7.44C10.68 7.44 6.72 11.4 6.72 16.29ZM15.57 25.14C20.46 25.14 24.42 21.18 24.42 16.29C24.42 14.19 23.7 12.27 22.47 10.74L10.02 23.19C11.55 24.42 13.47 25.14 15.57 25.14Z" fill="white"/>
  </g>
</svg>
